<svg width="23" height="22" viewBox="0 0 23 22" fill="none" xmlns="http://www.w3.org/2000/svg">
<path d="M9.80657 2.08629L10.8956 2.51529C11.284 2.66823 11.716 2.66823 12.1045 2.51529L13.1935 2.08629C13.8346 1.83416 14.5485 1.84059 15.1849 2.10423C15.8214 2.36788 16.3307 2.86817 16.6057 3.49979L17.0721 4.57229C17.2386 4.95505 17.544 5.26046 17.9268 5.42699L18.9993 5.89339C19.6312 6.16839 20.1317 6.6779 20.3953 7.3146C20.659 7.95129 20.6652 8.66547 20.4128 9.30669L19.9838 10.3957C19.8311 10.7838 19.8311 11.2154 19.9838 11.6035L20.4128 12.6925C20.6649 13.3336 20.6585 14.0475 20.3948 14.6839C20.1312 15.3204 19.6309 15.8297 18.9993 16.1047L17.9268 16.5711C17.544 16.7375 17.2385 17.043 17.0721 17.4258L16.6057 18.4983C16.3307 19.1302 15.8212 19.6307 15.1845 19.8943C14.5478 20.158 13.8336 20.1643 13.1924 19.9118L12.1034 19.4828C11.7152 19.3301 11.2837 19.3301 10.8956 19.4828L9.80657 19.9118C9.16548 20.1639 8.45157 20.1575 7.81513 19.8939C7.17869 19.6302 6.66936 19.1299 6.39437 18.4983L5.92797 17.4258C5.76144 17.043 5.45603 16.7376 5.07327 16.5711L4.00077 16.1047C3.36888 15.8297 2.86839 15.3202 2.60472 14.6835C2.34106 14.0468 2.3348 13.3326 2.58727 12.6914L3.01627 11.6024C3.16892 11.2143 3.16892 10.7827 3.01627 10.3946L2.58727 9.30559C2.33513 8.66451 2.34156 7.9506 2.60521 7.31415C2.86885 6.67771 3.36915 6.16839 4.00077 5.89339L5.07327 5.42699C5.45603 5.26046 5.76144 4.95505 5.92797 4.57229L6.39437 3.49979C6.66936 2.86791 7.17887 2.36741 7.81557 2.10375C8.45227 1.84008 9.16645 1.83382 9.80767 2.08629H9.80657ZM13.5961 3.10929L12.5071 3.53829C11.8599 3.79299 11.1402 3.79299 10.493 3.53829L9.40397 3.10929C9.02797 2.9615 8.6093 2.96536 8.23609 3.12006C7.86288 3.27476 7.56425 3.56824 7.40307 3.93869L6.93667 5.01119C6.65911 5.64912 6.15009 6.15814 5.51217 6.43569L4.43967 6.90209C4.06914 7.06348 3.77572 7.36237 3.62121 7.73582C3.46671 8.10926 3.46318 8.5281 3.61137 8.90409L4.03927 9.99199C4.29397 10.6392 4.29397 11.3589 4.03927 12.0061L3.61027 13.0951C3.30337 13.8761 3.66967 14.7605 4.43967 15.096L5.51217 15.5624C6.15009 15.84 6.65911 16.349 6.93667 16.9869L7.40307 18.0594C7.56445 18.4299 7.86335 18.7233 8.23679 18.8779C8.61024 19.0324 9.02908 19.0359 9.40507 18.8877L10.493 18.4587C11.1402 18.204 11.8599 18.204 12.5071 18.4587L13.5961 18.8877C14.3771 19.1957 15.2615 18.8294 15.597 18.0594L16.0634 16.9869C16.3409 16.349 16.8499 15.84 17.4879 15.5624L18.5604 15.096C18.9309 14.9346 19.2243 14.6357 19.3788 14.2623C19.5333 13.8888 19.5369 13.47 19.3887 13.094L18.9597 12.0061C18.705 11.3589 18.705 10.6392 18.9597 9.99199L19.3887 8.90299C19.5365 8.52713 19.5328 8.10857 19.3783 7.73538C19.2239 7.36219 18.9306 7.06347 18.5604 6.90209L17.4879 6.43569C16.8499 6.15814 16.3409 5.64912 16.0634 5.01119L15.597 3.93869C15.4356 3.56817 15.1367 3.27474 14.7632 3.12024C14.3898 2.96573 13.971 2.9622 13.595 3.11039L13.5961 3.10929ZM10.3764 12.9477L14.3892 8.43329C14.4807 8.33197 14.6067 8.26834 14.7426 8.25478C14.8785 8.24123 15.0146 8.27872 15.1244 8.35995C15.2342 8.44119 15.3098 8.56037 15.3366 8.69429C15.3633 8.82821 15.3393 8.9673 15.2692 9.08449L15.2109 9.16479L10.8109 14.1148C10.7221 14.2146 10.6 14.2787 10.4674 14.2951C10.3348 14.3115 10.2008 14.2791 10.0904 14.2039L10.0112 14.1379L7.81117 11.9379C7.71373 11.8409 7.65616 11.7109 7.6498 11.5735C7.64344 11.4362 7.68876 11.3014 7.77682 11.1959C7.86489 11.0903 7.98931 11.0215 8.12557 11.0031C8.26183 10.9847 8.40004 11.018 8.51297 11.0964L8.58887 11.1602L10.3764 12.9477Z" fill="white"/>
</svg>
