<svg width="24" height="24" viewBox="0 0 24 24" fill="none" xmlns="http://www.w3.org/2000/svg">
<rect width="24" height="24" fill="#1E1E1E"/>
<g clip-path="url(#clip0_0_1)">
<rect width="360" height="1225" transform="translate(-36 -742)" fill="white"/>
<rect x="-16" y="-20" width="320" height="64" rx="10" fill="#EDF3FD"/>
<circle cx="12" cy="12" r="12" fill="#2C7EF8"/>
<mask id="mask0_0_1" style="mask-type:alpha" maskUnits="userSpaceOnUse" x="4" y="4" width="16" height="16">
<rect x="4.7998" y="4.79999" width="14.4" height="14.4" fill="#D9D9D9"/>
</mask>
<g mask="url(#mask0_0_1)">
<path d="M9.29995 11.4C8.71995 11.4 8.22495 11.195 7.81495 10.785C7.40495 10.375 7.19995 9.88004 7.19995 9.30004C7.19995 8.72004 7.40495 8.22504 7.81495 7.81504C8.22495 7.40504 8.71995 7.20004 9.29995 7.20004C9.87995 7.20004 10.375 7.40504 10.785 7.81504C11.195 8.22504 11.4 8.72004 11.4 9.30004C11.4 9.88004 11.195 10.375 10.785 10.785C10.375 11.195 9.87995 11.4 9.29995 11.4ZM9.29995 10.2C9.54995 10.2 9.76245 10.1125 9.93745 9.93754C10.1125 9.76254 10.2 9.55004 10.2 9.30004C10.2 9.05004 10.1125 8.83754 9.93745 8.66254C9.76245 8.48754 9.54995 8.40004 9.29995 8.40004C9.04995 8.40004 8.83745 8.48754 8.66245 8.66254C8.48745 8.83754 8.39995 9.05004 8.39995 9.30004C8.39995 9.55004 8.48745 9.76254 8.66245 9.93754C8.83745 10.1125 9.04995 10.2 9.29995 10.2ZM14.7 16.8C14.12 16.8 13.625 16.595 13.215 16.185C12.805 15.775 12.6 15.28 12.6 14.7C12.6 14.12 12.805 13.625 13.215 13.215C13.625 12.805 14.12 12.6 14.7 12.6C15.28 12.6 15.775 12.805 16.185 13.215C16.595 13.625 16.8 14.12 16.8 14.7C16.8 15.28 16.595 15.775 16.185 16.185C15.775 16.595 15.28 16.8 14.7 16.8ZM14.7 15.6C14.95 15.6 15.1625 15.5125 15.3375 15.3375C15.5125 15.1625 15.6 14.95 15.6 14.7C15.6 14.45 15.5125 14.2375 15.3375 14.0625C15.1625 13.8875 14.95 13.8 14.7 13.8C14.45 13.8 14.2375 13.8875 14.0625 14.0625C13.8875 14.2375 13.8 14.45 13.8 14.7C13.8 14.95 13.8875 15.1625 14.0625 15.3375C14.2375 15.5125 14.45 15.6 14.7 15.6ZM7.61995 16.38C7.50995 16.27 7.45495 16.13 7.45495 15.96C7.45495 15.79 7.50995 15.65 7.61995 15.54L15.54 7.62004C15.65 7.51004 15.79 7.45504 15.96 7.45504C16.13 7.45504 16.27 7.51004 16.38 7.62004C16.49 7.73004 16.545 7.87004 16.545 8.04004C16.545 8.21004 16.49 8.35004 16.38 8.46004L8.45995 16.38C8.34995 16.49 8.20995 16.545 8.03995 16.545C7.86995 16.545 7.72995 16.49 7.61995 16.38Z" fill="white"/>
</g>
</g>
<defs>
<clipPath id="clip0_0_1">
<rect width="360" height="1225" fill="white" transform="translate(-36 -742)"/>
</clipPath>
</defs>
</svg>
