<svg width="12" height="12" viewBox="0 0 12 12" fill="none" xmlns="http://www.w3.org/2000/svg">
<path d="M10.6424 4.13774L7.66701 3.70531L6.33693 1.00883C6.3006 0.935002 6.24084 0.875236 6.16701 0.838908C5.98185 0.747502 5.75685 0.823674 5.66427 1.00883L4.3342 3.70531L1.35881 4.13774C1.27677 4.14946 1.20177 4.18813 1.14435 4.24672C1.07493 4.31807 1.03668 4.41407 1.038 4.51361C1.03932 4.61315 1.0801 4.70809 1.15138 4.77758L3.30412 6.87641L2.79552 9.84008C2.7836 9.90902 2.79123 9.97993 2.81755 10.0448C2.84387 10.1096 2.88782 10.1657 2.94443 10.2068C3.00104 10.248 3.06804 10.2724 3.13783 10.2774C3.20762 10.2823 3.2774 10.2677 3.33927 10.235L6.0006 8.83578L8.66193 10.235C8.73459 10.2737 8.81896 10.2866 8.89982 10.2725C9.10373 10.2373 9.24084 10.044 9.20568 9.84008L8.69709 6.87641L10.8498 4.77758C10.9084 4.72016 10.9471 4.64516 10.9588 4.56313C10.9904 4.35805 10.8475 4.16821 10.6424 4.13774Z" fill="#FFC000"/>
</svg>
